{
  "accessors": [
    {
      "bufferView": 0,
      "byteOffset": 0,
      "componentType": 5123,
      "count": 3594,
      "max": [3593],
      "min": [0],
      "name": "buffer-0-accessor-indices-buffer-0-mesh-0",
      "type": "SCALAR"
    },
    {
      "bufferView": 2,
      "byteOffset": 0,
      "componentType": 5126,
      "count": 3594,
      "max": [6.875408172607422, 11.76679515838623, 3.083333015441895],
      "min": [-4.424890041351318, 0, -3.113811016082764],
      "name": "buffer-0-accessor-position-buffer-0-mesh-0",
      "type": "VEC3"
    },
    {
      "bufferView": 2,
      "byteOffset": 43128,
      "componentType": 5126,
      "count": 3594,
      "max": [0.9968439936637878, 0.9999930262565613, 0.9999930262565613],
      "min": [-0.9973520040512085, -1, -0.9999930262565613],
      "name": "buffer-0-accessor-normal-buffer-0-mesh-0",
      "type": "VEC3"
    },
    {
      "bufferView": 1,
      "byteOffset": 0,
      "componentType": 5126,
      "count": 3594,
      "max": [0.9947940111160278, 0],
      "min": [0, -0.9893199801445007],
      "name": "buffer-0-accessor-texcoord-buffer-0-mesh-0",
      "type": "VEC2"
    },
    {
      "bufferView": 3,
      "byteOffset": 0,
      "componentType": 5126,
      "count": 0,
      "max": [0, 0, 0, 0],
      "min": [0, 0, 0, 0],
      "name": "buffer-0-accessor-color-buffer-0-mesh-0",
      "type": "VEC4"
    }
  ],
  "asset": {
    "extras": {
      "GOOGLE_processor_version": 294144208
    },
    "generator": "Obj2GltfConverter",
    "version": "2.0"
  },
  "bufferViews": [
    {
      "buffer": 0,
      "byteLength": 7188,
      "byteOffset": 0,
      "byteStride": 0,
      "name": "buffer-0-bufferview-ushort",
      "target": 34963
    },
    {
      "buffer": 0,
      "byteLength": 28752,
      "byteOffset": 7192,
      "byteStride": 8,
      "name": "buffer-0-bufferview-vec2",
      "target": 34962
    },
    {
      "buffer": 0,
      "byteLength": 86256,
      "byteOffset": 35952,
      "byteStride": 12,
      "name": "buffer-0-bufferview-vec3",
      "target": 34962
    },
    {
      "buffer": 0,
      "byteLength": 1,
      "byteOffset": 0,
      "name": "buffer-0-bufferview-vec4"
    }
  ],
  "buffers": [
    {
      "byteLength": 122208,
      "name": "buffer-0",
      "uri": "BloodwoodTree.bin"
    }
  ],
  "cameras": [
    {
      "perspective": {
        "yfov": 0.7853981633974483,
        "znear": 0.1000000014901161
      },
      "type": "perspective"
    }
  ],
  "extensions": {
    "KHR_lights_punctual": {
      "lights": [
        {
          "color": [1, 0.9333333333333333, 0.8666666666666667],
          "intensity": 0.25,
          "name": "headLight",
          "type": "directional"
        },
        {
          "color": [1, 0.9333333333333333, 0.8666666666666667],
          "intensity": 0.324999988079071,
          "name": "keyLight",
          "type": "directional"
        }
      ]
    }
  },
  "extensionsUsed": [
    "GOOGLE_backgrounds",
    "GOOGLE_camera_settings",
    "KHR_lights_punctual"
  ],
  "extras": {
    "GOOGLE_initial_camera_motion": {
      "motionPath": "FULL_ROTATION"
    },
    "GOOGLE_lighting_rig": {
      "disableShadows": false
    }
  },
  "images": [
    {
      "mimeType": "image/png",
      "name": "BloodwoodTree_mat-image",
      "uri": "BloodwoodTree_BaseColor.png"
    }
  ],
  "materials": [
    {
      "alphaMode": "OPAQUE",
      "doubleSided": true,
      "name": "BloodwoodTree_mat",
      "pbrMetallicRoughness": {
        "baseColorFactor": [0.5, 0.5, 0.5, 1],
        "baseColorTexture": {
          "index": 0,
          "texCoord": 0
        },
        "metallicFactor": 0,
        "roughnessFactor": 0.9699476628648295
      }
    }
  ],
  "meshes": [
    {
      "name": "buffer-0-mesh-0",
      "primitives": [
        {
          "attributes": {
            "NORMAL": 2,
            "POSITION": 1,
            "TEXCOORD_0": 3
          },
          "indices": 0,
          "material": 0,
          "mode": 4
        }
      ]
    }
  ],
  "nodes": [
    {
      "mesh": 0,
      "name": "node-0"
    },
    {
      "children": [2]
    },
    {
      "children": [3],
      "extras": {
        "isTransformNode": 1
      },
      "translation": [
        0.7374298271152816, 7.669442789979268, 0.01400895218292629
      ]
    },
    {
      "children": [0],
      "translation": [
        -0.7374298271152816, -7.669442789979268, -0.01400895218292629
      ]
    },
    {
      "camera": 0,
      "children": [5],
      "rotation": [
        -0.2219240542792781, -0.2518950318538156, -0.05946428056213491,
        0.9400864887853888
      ],
      "translation": [-7.022346326357737, 14.94996619729696, 13.45249567638689]
    },
    {
      "extensions": {
        "KHR_lights_punctual": {
          "light": 0
        }
      },
      "extras": {
        "isHeadLight": 1
      },
      "name": "headLightNode",
      "translation": [-7.516858387326153, 3.758429193663076, 3.758429193663076]
    },
    {
      "extensions": {
        "KHR_lights_punctual": {
          "light": 1
        }
      },
      "extras": {
        "isKeyLight": 1
      },
      "name": "keyLightNode",
      "rotation": [
        -0.7505326882858236, -0.3752663441429118, 0, 0.5439447166468927
      ],
      "scale": [0, 0, 7.592026971199414],
      "translation": [-6.2478493851176, 21.32795543964055, -7.746151317158725]
    }
  ],
  "samplers": [
    {
      "name": "BloodwoodTree_mat-sampler",
      "wrapS": 10497,
      "wrapT": 10497
    }
  ],
  "scene": 0,
  "scenes": [
    {
      "extensions": {
        "GOOGLE_backgrounds": {
          "color": [1, 0.596078431372549, 0]
        },
        "GOOGLE_camera_settings": {}
      },
      "extras": {
        "GOOGLE_camera_index": {
          "cameraIndex": 0,
          "nodeIndex": 4
        },
        "GOOGLE_geometry_data": {
          "stats": {
            "centroid": [
              1.344177586081815, 6.143901497241718, -0.1541243459593114
            ],
            "radius": 7.516858387326153,
            "stdev": 3.146494290604809
          },
          "visualCenterPoint": [
            0.7374298271152816, 7.669442789979268, 0.01400895218292629
          ]
        },
        "GOOGLE_hemi_light": {
          "groundColor": [1, 0.596078431372549, 0]
        }
      },
      "name": "scene-0",
      "nodes": [1, 4, 6]
    }
  ],
  "textures": [
    {
      "name": "BloodwoodTree_mat-texture",
      "sampler": 0,
      "source": 0
    }
  ]
}
