{
  "accessors": [
    {
      "bufferView": 0,
      "componentType": 5123,
      "count": 3360,
      "max": [3359],
      "min": [0],
      "name": "buffer-0-accessor-indices-buffer-0-mesh-0",
      "type": "SCALAR"
    },
    {
      "bufferView": 2,
      "componentType": 5126,
      "count": 3360,
      "max": [3.945230007171631, 10.22840118408203, 4.052234172821045],
      "min": [-4.024351119995117, 0, -3.953934907913208],
      "name": "buffer-0-accessor-position-buffer-0-mesh-0",
      "type": "VEC3"
    },
    {
      "bufferView": 2,
      "byteOffset": 40320,
      "componentType": 5126,
      "count": 3360,
      "max": [0.9969099760055542, 1, 0.9991499781608582],
      "min": [-0.9991250038146973, -1, -0.9994029998779297],
      "name": "buffer-0-accessor-normal-buffer-0-mesh-0",
      "type": "VEC3"
    },
    {
      "bufferView": 1,
      "componentType": 5126,
      "count": 3360,
      "max": [0.9980760216712952, 0],
      "min": [0, -0.9956570267677307],
      "name": "buffer-0-accessor-texcoord-buffer-0-mesh-0",
      "type": "VEC2"
    },
    {
      "bufferView": 3,
      "componentType": 5126,
      "count": 0,
      "max": [0, 0, 0, 0],
      "min": [0, 0, 0, 0],
      "name": "buffer-0-accessor-color-buffer-0-mesh-0",
      "type": "VEC4"
    }
  ],
  "asset": {
    "extras": {
      "GOOGLE_processor_version": 294144208
    },
    "generator": "Obj2GltfConverter",
    "version": "2.0"
  },
  "bufferViews": [
    {
      "buffer": 0,
      "byteLength": 6720,
      "byteStride": 0,
      "name": "buffer-0-bufferview-ushort",
      "target": 34963
    },
    {
      "buffer": 0,
      "byteLength": 26880,
      "byteOffset": 6720,
      "byteStride": 8,
      "name": "buffer-0-bufferview-vec2",
      "target": 34962
    },
    {
      "buffer": 0,
      "byteLength": 80640,
      "byteOffset": 33600,
      "byteStride": 12,
      "name": "buffer-0-bufferview-vec3",
      "target": 34962
    },
    {
      "buffer": 0,
      "byteLength": 1,
      "name": "buffer-0-bufferview-vec4"
    }
  ],
  "buffers": [
    {
      "byteLength": 114240,
      "name": "buffer-0",
      "uri": "DatePalmTree.bin"
    }
  ],
  "cameras": [
    {
      "perspective": {
        "yfov": 0.7853981633974483,
        "znear": 0.1000000014901161
      },
      "type": "perspective"
    }
  ],
  "extensions": {
    "KHR_lights_punctual": {
      "lights": [
        {
          "color": [1, 0.9333333333333333, 0.8666666666666667],
          "intensity": 0.25,
          "name": "headLight",
          "type": "directional"
        },
        {
          "color": [1, 0.9333333333333333, 0.8666666666666667],
          "intensity": 0.324999988079071,
          "name": "keyLight",
          "type": "directional"
        }
      ]
    }
  },
  "extensionsUsed": [
    "GOOGLE_backgrounds",
    "GOOGLE_camera_settings",
    "KHR_lights_punctual"
  ],
  "extras": {
    "GOOGLE_initial_camera_motion": {
      "motionPath": "FULL_ROTATION"
    },
    "GOOGLE_lighting_rig": {
      "disableShadows": false
    }
  },
  "images": [
    {
      "mimeType": "image/png",
      "name": "DatePalmTree_mat-image",
      "uri": "DatePalmTree_BaseColor.png"
    }
  ],
  "materials": [
    {
      "doubleSided": true,
      "name": "DatePalmTree_mat",
      "pbrMetallicRoughness": {
        "baseColorFactor": [0.5, 0.5, 0.5, 1],
        "baseColorTexture": {
          "index": 0
        },
        "metallicFactor": 0,
        "roughnessFactor": 0.9699476628648295
      }
    }
  ],
  "meshes": [
    {
      "name": "buffer-0-mesh-0",
      "primitives": [
        {
          "attributes": {
            "NORMAL": 2,
            "POSITION": 1,
            "TEXCOORD_0": 3
          },
          "indices": 0,
          "material": 0
        }
      ]
    }
  ],
  "nodes": [
    {
      "mesh": 0,
      "name": "node-0"
    },
    {
      "children": [2]
    },
    {
      "children": [3],
      "extras": {
        "isTransformNode": 1
      },
      "translation": [
        -0.04609955994828484, 6.116199003525058, 0.0001686176015617824
      ]
    },
    {
      "children": [0],
      "translation": [
        0.04609955994828484, -6.116199003525058, -0.0001686176015617824
      ]
    },
    {
      "camera": 0,
      "children": [5],
      "rotation": [
        -0.221924054279278, -0.2518950318538158, -0.05946428056213493,
        0.9400864887853888
      ],
      "translation": [-5.472286899795082, 11.53885134802143, 9.394214670566837]
    },
    {
      "extensions": {
        "KHR_lights_punctual": {
          "light": 0
        }
      },
      "extras": {
        "isHeadLight": 1
      },
      "name": "headLightNode",
      "translation": [-7.033630550271139, 3.51681527513557, 3.51681527513557]
    },
    {
      "extensions": {
        "KHR_lights_punctual": {
          "light": 1
        }
      },
      "extras": {
        "isKeyLight": 1
      },
      "name": "keyLightNode",
      "rotation": [
        -0.7505326882858236, -0.3752663441429118, 0, 0.5439447166468927
      ],
      "scale": [0, 0, 7.103966855773851],
      "translation": [-7.21300729047936, 20.55151565092991, -7.070168616135719]
    }
  ],
  "samplers": [
    {
      "name": "DatePalmTree_mat-sampler",
      "wrapS": 10497,
      "wrapT": 10497
    }
  ],
  "scene": 0,
  "scenes": [
    {
      "extensions": {
        "GOOGLE_backgrounds": {
          "color": [1, 0.7568627450980392, 0.02745098039215686]
        },
        "GOOGLE_camera_settings": {}
      },
      "extras": {
        "GOOGLE_camera_index": {
          "cameraIndex": 0,
          "nodeIndex": 4
        },
        "GOOGLE_geometry_data": {
          "stats": {
            "centroid": [
              -0.1090404347055093, 6.343581939382213, 0.03379823963813189
            ],
            "radius": 7.033630550271139,
            "stdev": 2.511693290444838
          },
          "visualCenterPoint": [
            -0.04609955994828484, 6.116199003525058, 0.0001686176015617824
          ]
        },
        "GOOGLE_hemi_light": {
          "groundColor": [1, 0.7568627450980392, 0.02745098039215686]
        }
      },
      "name": "scene-0",
      "nodes": [1, 4, 6]
    }
  ],
  "textures": [
    {
      "name": "DatePalmTree_mat-texture",
      "sampler": 0,
      "source": 0
    }
  ]
}
